<mxfile host="Electron" agent="Mozilla/5.0 (X11; Linux x86_64) AppleWebKit/537.36 (KHTML, like Gecko) draw.io/24.7.17 Chrome/128.0.6613.36 Electron/32.0.1 Safari/537.36" version="24.7.17">
  <diagram name="Page-1" id="mMCA69juecORdlarh5NK">
    <mxGraphModel dx="1145" dy="685" grid="1" gridSize="10" guides="1" tooltips="1" connect="1" arrows="1" fold="1" page="1" pageScale="1" pageWidth="850" pageHeight="1100" math="0" shadow="0">
      <root>
        <mxCell id="0" />
        <mxCell id="1" parent="0" />
        <mxCell id="2qhZ4QlU_wq2FUsO0siI-10" style="edgeStyle=orthogonalEdgeStyle;rounded=0;orthogonalLoop=1;jettySize=auto;html=1;exitX=0.75;exitY=0;exitDx=0;exitDy=0;entryX=0.5;entryY=1;entryDx=0;entryDy=0;" edge="1" parent="1" source="T9edA2yJ1EYy2SNgYuGs-2" target="T9edA2yJ1EYy2SNgYuGs-6">
          <mxGeometry relative="1" as="geometry">
            <mxPoint x="620" y="320" as="targetPoint" />
            <Array as="points">
              <mxPoint x="440" y="350" />
              <mxPoint x="440" y="340" />
              <mxPoint x="620" y="340" />
            </Array>
          </mxGeometry>
        </mxCell>
        <mxCell id="T9edA2yJ1EYy2SNgYuGs-2" value="Raspberry Pi Zero" style="rounded=1;whiteSpace=wrap;html=1;" parent="1" vertex="1">
          <mxGeometry x="330" y="350" width="140" height="80" as="geometry" />
        </mxCell>
        <mxCell id="T9edA2yJ1EYy2SNgYuGs-6" value="UV &amp;amp;&lt;div&gt;weiÃŸe LED&#39;s&lt;/div&gt;" style="ellipse;whiteSpace=wrap;html=1;aspect=fixed;" parent="1" vertex="1">
          <mxGeometry x="580" y="220" width="80" height="80" as="geometry" />
        </mxCell>
        <mxCell id="T9edA2yJ1EYy2SNgYuGs-7" value="Temp.-/Feucht.-/&lt;div&gt;Drucksensor (BME280)&lt;/div&gt;" style="rounded=1;whiteSpace=wrap;html=1;" parent="1" vertex="1">
          <mxGeometry x="305" y="220" width="120" height="60" as="geometry" />
        </mxCell>
        <mxCell id="T9edA2yJ1EYy2SNgYuGs-8" value="GPS-Modul mit Uhrzeit" style="rounded=1;whiteSpace=wrap;html=1;" parent="1" vertex="1">
          <mxGeometry x="560" y="360" width="120" height="60" as="geometry" />
        </mxCell>
        <mxCell id="2qhZ4QlU_wq2FUsO0siI-5" style="edgeStyle=orthogonalEdgeStyle;rounded=0;orthogonalLoop=1;jettySize=auto;html=1;exitX=1;exitY=0.5;exitDx=0;exitDy=0;exitPerimeter=0;entryX=0;entryY=0.5;entryDx=0;entryDy=0;" edge="1" parent="1" source="T9edA2yJ1EYy2SNgYuGs-9" target="T9edA2yJ1EYy2SNgYuGs-2">
          <mxGeometry relative="1" as="geometry" />
        </mxCell>
        <mxCell id="2qhZ4QlU_wq2FUsO0siI-6" style="edgeStyle=orthogonalEdgeStyle;rounded=0;orthogonalLoop=1;jettySize=auto;html=1;exitX=1;exitY=0.5;exitDx=0;exitDy=0;exitPerimeter=0;entryX=0.5;entryY=0;entryDx=0;entryDy=0;" edge="1" parent="1" source="T9edA2yJ1EYy2SNgYuGs-9" target="T9edA2yJ1EYy2SNgYuGs-6">
          <mxGeometry relative="1" as="geometry">
            <mxPoint x="620" y="160" as="targetPoint" />
            <Array as="points">
              <mxPoint x="280" y="390" />
              <mxPoint x="280" y="200" />
              <mxPoint x="620" y="200" />
            </Array>
          </mxGeometry>
        </mxCell>
        <mxCell id="T9edA2yJ1EYy2SNgYuGs-9" value="USB-C&amp;nbsp; &amp;nbsp; &amp;nbsp;&amp;nbsp;" style="shape=or;whiteSpace=wrap;html=1;" parent="1" vertex="1">
          <mxGeometry x="170" y="350" width="60" height="80" as="geometry" />
        </mxCell>
        <mxCell id="2qhZ4QlU_wq2FUsO0siI-9" value="" style="endArrow=classic;startArrow=classic;html=1;rounded=0;entryX=0.5;entryY=1;entryDx=0;entryDy=0;exitX=0.422;exitY=-0.067;exitDx=0;exitDy=0;exitPerimeter=0;" edge="1" parent="1" source="2qhZ4QlU_wq2FUsO0siI-22" target="T9edA2yJ1EYy2SNgYuGs-7">
          <mxGeometry width="50" height="50" relative="1" as="geometry">
            <mxPoint x="400" y="350" as="sourcePoint" />
            <mxPoint x="450" y="310" as="targetPoint" />
          </mxGeometry>
        </mxCell>
        <mxCell id="2qhZ4QlU_wq2FUsO0siI-12" value="" style="endArrow=classic;startArrow=classic;html=1;rounded=0;exitX=1;exitY=0.5;exitDx=0;exitDy=0;entryX=0;entryY=0.5;entryDx=0;entryDy=0;" edge="1" parent="1" source="T9edA2yJ1EYy2SNgYuGs-2" target="T9edA2yJ1EYy2SNgYuGs-8">
          <mxGeometry width="50" height="50" relative="1" as="geometry">
            <mxPoint x="660" y="430" as="sourcePoint" />
            <mxPoint x="710" y="380" as="targetPoint" />
          </mxGeometry>
        </mxCell>
        <mxCell id="2qhZ4QlU_wq2FUsO0siI-13" value="UART" style="text;html=1;align=center;verticalAlign=middle;whiteSpace=wrap;rounded=0;" vertex="1" parent="1">
          <mxGeometry x="490" y="360" width="60" height="30" as="geometry" />
        </mxCell>
        <mxCell id="2qhZ4QlU_wq2FUsO0siI-14" value="" style="endArrow=classic;startArrow=classic;html=1;rounded=0;entryX=0.5;entryY=1;entryDx=0;entryDy=0;" edge="1" parent="1" source="T9edA2yJ1EYy2SNgYuGs-4" target="T9edA2yJ1EYy2SNgYuGs-2">
          <mxGeometry width="50" height="50" relative="1" as="geometry">
            <mxPoint x="400" y="510" as="sourcePoint" />
            <mxPoint x="450" y="460" as="targetPoint" />
          </mxGeometry>
        </mxCell>
        <mxCell id="2qhZ4QlU_wq2FUsO0siI-17" value="" style="shape=link;html=1;rounded=0;" edge="1" parent="1">
          <mxGeometry width="100" relative="1" as="geometry">
            <mxPoint x="360" y="320" as="sourcePoint" />
            <mxPoint x="370" y="310" as="targetPoint" />
          </mxGeometry>
        </mxCell>
        <mxCell id="2qhZ4QlU_wq2FUsO0siI-18" value="I&lt;sup&gt;2&lt;/sup&gt;C" style="text;html=1;align=center;verticalAlign=middle;whiteSpace=wrap;rounded=0;" vertex="1" parent="1">
          <mxGeometry x="355" y="290" width="60" height="30" as="geometry" />
        </mxCell>
        <mxCell id="2qhZ4QlU_wq2FUsO0siI-19" value="" style="shape=link;html=1;rounded=0;" edge="1" parent="1">
          <mxGeometry width="100" relative="1" as="geometry">
            <mxPoint x="510" y="395" as="sourcePoint" />
            <mxPoint x="520" y="385" as="targetPoint" />
          </mxGeometry>
        </mxCell>
        <mxCell id="2qhZ4QlU_wq2FUsO0siI-22" value="&lt;font style=&quot;font-size: 5px;&quot;&gt;GPIO2&amp;amp;3 (SDA, SCL)&lt;/font&gt;" style="rounded=0;whiteSpace=wrap;html=1;" vertex="1" parent="1">
          <mxGeometry x="340" y="350" width="60" height="10" as="geometry" />
        </mxCell>
        <mxCell id="2qhZ4QlU_wq2FUsO0siI-25" value="&lt;div style=&quot;&quot;&gt;&lt;span style=&quot;font-size: 5px; background-color: initial;&quot;&gt;GPIO14&amp;amp;15 (Tx, Rx)&lt;/span&gt;&lt;/div&gt;" style="rounded=0;whiteSpace=wrap;html=1;rotation=-90;align=center;" vertex="1" parent="1">
          <mxGeometry x="437.5" y="387.5" width="55" height="10" as="geometry" />
        </mxCell>
        <mxCell id="2qhZ4QlU_wq2FUsO0siI-27" value="&lt;font style=&quot;font-size: 5px;&quot;&gt;GPIO&lt;/font&gt;" style="rounded=0;whiteSpace=wrap;html=1;" vertex="1" parent="1">
          <mxGeometry x="425" y="350" width="30" height="10" as="geometry" />
        </mxCell>
        <mxCell id="2qhZ4QlU_wq2FUsO0siI-29" value="" style="endArrow=none;html=1;rounded=0;entryX=0.7;entryY=0.1;entryDx=0;entryDy=0;entryPerimeter=0;exitX=0.7;exitY=0.9;exitDx=0;exitDy=0;exitPerimeter=0;" edge="1" parent="1" source="T9edA2yJ1EYy2SNgYuGs-9" target="T9edA2yJ1EYy2SNgYuGs-9">
          <mxGeometry width="50" height="50" relative="1" as="geometry">
            <mxPoint x="260" y="440" as="sourcePoint" />
            <mxPoint x="310" y="390" as="targetPoint" />
          </mxGeometry>
        </mxCell>
        <mxCell id="2qhZ4QlU_wq2FUsO0siI-30" value="&lt;font style=&quot;font-size: 7px;&quot;&gt;+5V&lt;/font&gt;" style="text;html=1;align=center;verticalAlign=middle;whiteSpace=wrap;rounded=0;" vertex="1" parent="1">
          <mxGeometry x="210" y="377.5" width="20" height="10" as="geometry" />
        </mxCell>
        <mxCell id="2qhZ4QlU_wq2FUsO0siI-31" value="&lt;font style=&quot;font-size: 7px;&quot;&gt;&amp;nbsp;GND&lt;/font&gt;" style="text;html=1;align=center;verticalAlign=middle;whiteSpace=wrap;rounded=0;" vertex="1" parent="1">
          <mxGeometry x="210" y="387.5" width="20" height="10" as="geometry" />
        </mxCell>
        <mxCell id="2qhZ4QlU_wq2FUsO0siI-32" value="" style="endArrow=classic;startArrow=classic;html=1;rounded=0;entryX=0.5;entryY=1;entryDx=0;entryDy=0;" edge="1" parent="1" target="T9edA2yJ1EYy2SNgYuGs-4">
          <mxGeometry width="50" height="50" relative="1" as="geometry">
            <mxPoint x="400" y="510" as="sourcePoint" />
            <mxPoint x="400" y="430" as="targetPoint" />
          </mxGeometry>
        </mxCell>
        <mxCell id="T9edA2yJ1EYy2SNgYuGs-4" value="PiCamera/Kamera" style="rounded=1;whiteSpace=wrap;html=1;" parent="1" vertex="1">
          <mxGeometry x="340" y="470" width="120" height="60" as="geometry" />
        </mxCell>
      </root>
    </mxGraphModel>
  </diagram>
</mxfile>
